<svg viewBox="40 40 720 720" xmlns="http://www.w3.org/2000/svg">
  <rect x="40" y="40" width="720" height="720" fill="#050B73"/>
  <defs>
    <clipPath id="a">
      <path d="M150 40c50-5 100 15 120 50s15 75-10 105-65 35-100 50c-30 13-50 30-65 10-5 35-25 55-45 45-10-5-5-30 5-50-15-20-25-60-10-100 10-40 45-80 85-100 7-5 14-8 20-10Z"/>
    </clipPath>
  </defs>
  <g transform="translate(84.4 161.1) scale(1.706)">
    <g clip-path="url(#a)">
      <path d="M150 40c50-5 100 15 120 50s15 75-10 105-65 35-100 50c-30 13-50 30-65 10-5 35-25 55-45 45-10-5-5-30 5-50-15-20-25-60-10-100 10-40 45-80 85-100 7-5 14-8 20-10Z" fill="#A8D8F0"/>
      <ellipse cx="200" cy="90" rx="70" ry="50" fill="#C8EAF8"/>
      <ellipse cx="95" cy="245" rx="55" ry="50" fill="#7BBEDD"/>
    </g>
    <circle cx="222" cy="108" r="9" fill="#050B73"/>
    <path d="M203 140q22 12 44-6" stroke="#050B73" stroke-width="9" fill="none" stroke-linecap="round"/>
    <circle cx="300" cy="55" r="22" fill="#A8D8F0"/>
    <circle cx="336" cy="14" r="15" fill="#C8EAF8"/>
  </g>
</svg>
